<?xml version="1.0" encoding="iso-8859-1"?>
<!-- Generator: Adobe Illustrator 22.0.1, SVG Export Plug-In . SVG Version: 6.00 Build 0)  -->
<svg version="1.1" id="Icons" xmlns="http://www.w3.org/2000/svg" xmlns:xlink="http://www.w3.org/1999/xlink" x="0px" y="0px"
	 viewBox="0 0 512 512" style="enable-background:new 0 0 512 512;" xml:space="preserve">
<g>
	<path id="XMLID_68_" style="fill:#FB80A5;" d="M512,255.904c0,70.692-28.654,134.692-74.981,181.019S326.692,511.904,256,511.904
		S121.308,483.25,74.981,436.924S0,326.597,0,255.904S28.654,121.212,74.981,74.885S185.308-0.096,256-0.096
		s134.692,28.654,181.019,74.981S512,185.212,512,255.904z"/>
	<g id="XMLID_1202_">
		<g id="XMLID_1204_">
			<g id="XMLID_1219_">
				<path id="XMLID_1230_" style="fill:#E7A272;" d="M160.682,453.373v-5.001v-5.001h-5.75h-5.75c-2.347,0-4.472-0.951-6.01-2.49
					c-1.538-1.538-2.49-3.663-2.49-6.01v-179v-179c0-2.347,0.951-4.472,2.49-6.01c1.538-1.538,3.663-2.49,6.01-2.49h5.75h5.75
					v-5.892v-5.892c0-3.53,1.431-6.727,3.745-9.04s5.51-3.745,9.04-3.745h-23.5h-23.5c-3.53,0-6.727,1.431-9.04,3.745
					s-3.745,5.51-3.745,9.04V254.98v198.394c0,3.53,1.431,6.727,3.745,9.04c2.314,2.314,5.51,3.745,9.04,3.745h23.5h23.5
					c-3.53,0-6.727-1.431-9.04-3.745C162.113,460.1,160.682,456.904,160.682,453.373z"/>
				<path id="XMLID_1229_" style="fill:#FDB67A;" d="M398.556,453.373V254.98V56.586c0-3.53-1.431-6.727-3.745-9.04
					s-5.51-3.745-9.04-3.745H279.619H173.467c-3.53,0-6.727,1.431-9.04,3.745s-3.745,5.51-3.745,9.04v5.892v5.892h100.25h100.25
					c2.347,0,4.472,0.951,6.01,2.49s2.49,3.663,2.49,6.01v179v179c0,2.347-0.951,4.472-2.49,6.01c-1.538,1.538-3.663,2.49-6.01,2.49
					h-100.25h-100.25v5.001v5.001c0,3.53,1.431,6.727,3.745,9.04c2.314,2.314,5.51,3.745,9.04,3.745h106.152h106.152
					c3.53,0,6.727-1.431,9.04-3.745C397.125,460.1,398.556,456.904,398.556,453.373z"/>
				<path id="XMLID_1228_" style="fill:#E0E0E0;" d="M140.682,76.871v179v179c0,2.347,0.951,4.472,2.49,6.01
					c1.538,1.538,3.663,2.49,6.01,2.49h5.75h5.75v-187.5v-187.5h-5.75h-5.75c-2.347,0-4.472,0.951-6.01,2.49
					C141.634,72.399,140.682,74.524,140.682,76.871z"/>
				<path id="XMLID_1227_" style="fill:#FFFFFF;" d="M361.182,443.371c2.347,0,4.472-0.951,6.01-2.49
					c1.538-1.538,2.49-3.663,2.49-6.01v-179v-179c0-2.347-0.951-4.472-2.49-6.01s-3.663-2.49-6.01-2.49h-100.25h-100.25v187.5v187.5
					h100.25H361.182z"/>
				<path id="XMLID_1226_" style="fill:#E0E0E0;" d="M321.619,61.701v13v13c0,3.225-1.305,6.143-3.416,8.254
					s-5.029,3.416-8.254,3.416h-53.83h-53.83c-3.225,0-6.143-1.305-8.254-3.416c-2.111-2.111-3.416-5.029-3.416-8.254v-13v-13
					c0-3.22,1.305-6.135,3.416-8.245c2.111-2.11,5.029-3.415,8.254-3.415h53.83h53.83c3.225,0,6.143,1.305,8.254,3.415
					S321.619,58.481,321.619,61.701z"/>
				<g id="XMLID_1220_">
					<path id="XMLID_1225_" style="fill:#4A61B8;" d="M321.619,47.701v13v13c0,3.225-1.305,6.143-3.416,8.254
						s-5.029,3.416-8.254,3.416h-53.83h-53.83c-3.225,0-6.143-1.305-8.254-3.416c-2.111-2.111-3.416-5.029-3.416-8.254v-13v-13
						c0-3.22,1.305-6.135,3.416-8.245c2.111-2.11,5.029-3.415,8.254-3.415h53.83h53.83c3.225,0,6.143,1.305,8.254,3.415
						S321.619,44.481,321.619,47.701z"/>
					<path id="XMLID_1224_" style="fill:#4F66CE;" d="M321.619,47.701v13v13c0,3.225-1.305,6.143-3.416,8.254
						s-5.029,3.416-8.254,3.416h-43.58h-43.58c-3.225,0-6.143-1.305-8.254-3.416c-2.111-2.111-3.416-5.029-3.416-8.254v-13v-13
						c0-3.22,1.305-6.135,3.416-8.245c2.111-2.11,5.029-3.415,8.254-3.415h43.58h43.58c3.225,0,6.143,1.305,8.254,3.415
						S321.619,44.481,321.619,47.701z"/>
					<g id="XMLID_1221_">
						<path id="XMLID_1223_" style="fill:#415BA3;" d="M301.119,27.871v4.085v4.085h-45h-45v-4.085v-4.085
							c0-5.11,2.07-9.735,5.418-13.083s7.973-5.417,13.082-5.417h26.5h26.5c5.11,0,9.735,2.07,13.082,5.417
							S301.119,22.761,301.119,27.871z"/>
						<path id="XMLID_1222_" style="fill:#4960B3;" d="M301.119,27.871v4.085v4.085h-34.75h-34.75v-4.085v-4.085
							c0-5.11,2.07-9.735,5.418-13.083s7.973-5.417,13.082-5.417h16.25h16.25c5.11,0,9.735,2.07,13.082,5.417
							S301.119,22.761,301.119,27.871z"/>
					</g>
				</g>
			</g>
			
				<polyline id="XMLID_1218_" style="fill:none;stroke:#1F3D5C;stroke-width:8;stroke-linecap:round;stroke-miterlimit:10;" points="
				169.151,117.371 183.651,117.371 198.151,117.371 			"/>
			
				<polyline id="XMLID_1217_" style="fill:none;stroke:#1F3D5C;stroke-width:8;stroke-linecap:round;stroke-miterlimit:10;" points="
				217.119,117.371 281.135,117.371 345.151,117.371 			"/>
			
				<polyline id="XMLID_1216_" style="fill:none;stroke:#1F3D5C;stroke-width:8;stroke-linecap:round;stroke-miterlimit:10;" points="
				169.151,148.038 183.651,148.038 198.151,148.038 			"/>
			
				<polyline id="XMLID_1215_" style="fill:none;stroke:#1F3D5C;stroke-width:8;stroke-linecap:round;stroke-miterlimit:10;" points="
				217.119,148.038 281.135,148.038 345.151,148.038 			"/>
			
				<polyline id="XMLID_1214_" style="fill:none;stroke:#1F3D5C;stroke-width:8;stroke-linecap:round;stroke-miterlimit:10;" points="
				169.151,180.371 183.651,180.371 198.151,180.371 			"/>
			
				<polyline id="XMLID_1213_" style="fill:none;stroke:#1F3D5C;stroke-width:8;stroke-linecap:round;stroke-miterlimit:10;" points="
				217.119,180.371 281.135,180.371 345.151,180.371 			"/>
			
				<polyline id="XMLID_1212_" style="fill:none;stroke:#1F3D5C;stroke-width:8;stroke-linecap:round;stroke-miterlimit:10;" points="
				169.151,213.371 183.651,213.371 198.151,213.371 			"/>
			
				<polyline id="XMLID_1211_" style="fill:none;stroke:#1F3D5C;stroke-width:8;stroke-linecap:round;stroke-miterlimit:10;" points="
				217.119,213.371 281.135,213.371 345.151,213.371 			"/>
			<g id="XMLID_1205_">
				<path id="XMLID_1209_" style="fill:#C73A4C;" d="M196.882,356.254c-3.219-14.655-0.503-29.228,6.543-41.216
					s18.421-21.392,32.521-25.708c-4.569-1.415-9.347-2.266-14.235-2.489c-4.887-0.222-9.884,0.184-14.891,1.284
					c-15.425,3.388-28.016,12.708-35.904,25.037s-11.072,27.667-7.684,43.092c3.388,15.425,14.398,35.707,28.416,51.285
					c14.018,15.579,31.046,26.454,46.471,23.065c1.694-0.372,3.333-0.909,4.918-1.596c1.584-0.687,3.114-1.525,4.589-2.499
					c0.076-0.05,0.153-0.097,0.231-0.143s0.156-0.092,0.233-0.139c-11.922-6.346-23.451-18.049-32.637-31.06
					S199.426,367.836,196.882,356.254z"/>
				<path id="XMLID_1208_" style="fill:#FB4755;" d="M309.942,289.33c-0.741-0.227-1.487-0.443-2.24-0.646s-1.514-0.39-2.284-0.559
					c-5.626-1.236-11.239-1.594-16.698-1.169c-5.459,0.426-10.765,1.635-15.776,3.535c-0.493,0.187-0.984,0.378-1.472,0.576
					s-0.973,0.402-1.454,0.616c-4.438,1.969-9.168,2.953-13.898,2.953c-4.73,0-9.46-0.984-13.898-2.953
					c-1.019-0.452-2.053-0.875-3.099-1.267c-1.046-0.392-2.105-0.754-3.176-1.086c-14.1,4.317-25.475,13.72-32.521,25.708
					s-9.762,26.561-6.543,41.216c2.544,11.582,9.385,25.902,18.571,38.914s20.715,24.714,32.637,31.06
					c2.534-1.547,5.42-2.298,8.295-2.252c2.875,0.046,5.739,0.89,8.228,2.534c1.303,0.86,2.648,1.614,4.037,2.251
					c1.389,0.637,2.82,1.159,4.294,1.555c0.194,0.052,0.39,0.103,0.585,0.151s0.392,0.094,0.59,0.138
					c3.843,0.844,7.785,0.803,11.755,0.024c3.97-0.779,7.969-2.295,11.924-4.401c11.922-6.346,23.451-18.049,32.637-31.06
					s16.026-27.332,18.571-38.914c3.219-14.655,0.503-29.228-6.543-41.216S324.042,293.647,309.942,289.33z"/>
				<path id="XMLID_1207_" style="fill:#89C527;" d="M261.465,251.577c4.024,9.616,3.215,20.185,1.399,28.35
					s-4.637,13.926-4.637,13.926s-6.084-2.034-13.173-6.473c-7.09-4.438-15.186-11.281-19.21-20.897
					c-4.024-9.616-3.215-20.185-1.399-28.35c1.816-8.165,4.637-13.926,4.637-13.926s6.084,2.034,13.173,6.473
					S257.441,241.961,261.465,251.577z"/>
				<path id="XMLID_1206_" style="fill:none;stroke:#FC7701;stroke-width:8;stroke-linecap:round;stroke-miterlimit:10;" d="
					M256.031,304.933c0,0-0.208-8.871,3.906-18.407s12.548-19.738,29.832-22.399"/>
			</g>
		</g>
		<path id="XMLID_1203_" style="fill:#F76476;" d="M338.463,327.294c2.239,7.943,2.381,15.666,0.8,21.73
			c-1.581,6.065-4.884,10.471-9.536,11.782c-4.651,1.311-9.77-0.722-14.285-5.068c-4.515-4.346-8.428-11.006-10.667-18.949
			c-2.239-7.943-2.381-15.666-0.8-21.73c1.581-6.065,4.884-10.471,9.536-11.782s9.77,0.722,14.285,5.068
			C332.312,312.691,336.224,319.35,338.463,327.294z"/>
	</g>
</g>
</svg>
